<?xml version="1.0" encoding="UTF-8" standalone="no"?>
<svg
   width="48"
   height="48"
   version="1.1"
   viewBox="0 0 48 48"
   id="svg2"
   sodipodi:docname="auto_48.svg"
   inkscape:version="1.4.2 (f4327f4, 2025-05-13)"
   inkscape:export-filename="auto_64.png"
   inkscape:export-xdpi="128"
   inkscape:export-ydpi="128"
   xmlns:inkscape="http://www.inkscape.org/namespaces/inkscape"
   xmlns:sodipodi="http://sodipodi.sourceforge.net/DTD/sodipodi-0.dtd"
   xmlns="http://www.w3.org/2000/svg"
   xmlns:svg="http://www.w3.org/2000/svg">
  <sodipodi:namedview
     id="namedview2"
     pagecolor="#ffffff"
     bordercolor="#000000"
     borderopacity="0.25"
     inkscape:showpageshadow="2"
     inkscape:pageopacity="0.0"
     inkscape:pagecheckerboard="0"
     inkscape:deskcolor="#d1d1d1"
     showgrid="true"
     inkscape:current-layer="svg2"
     inkscape:zoom="8.7291667"
     inkscape:cx="48"
     inkscape:cy="48"
     inkscape:window-width="2560"
     inkscape:window-height="1009"
     inkscape:window-x="-8"
     inkscape:window-y="-8"
     inkscape:window-maximized="1">
    <inkscape:grid
       id="grid2"
       units="px"
       originx="0"
       originy="0"
       spacingx="0.5"
       spacingy="0.5"
       empcolor="#0099e5"
       empopacity="0.30196078"
       color="#0099e5"
       opacity="0.14901961"
       empspacing="2"
       dotted="false"
       gridanglex="30"
       gridanglez="30"
       visible="true" />
  </sodipodi:namedview>
  <defs
     id="defs2">
    <radialGradient
       id="a"
       cx="11.597042"
       cy="12.114004"
       r="12"
       gradientTransform="matrix(2.9969231,2.9969232,-2.6940731,2.694073,33.880572,-40.391457)"
       gradientUnits="userSpaceOnUse">
      <stop
         stop-color="#7070ff"
         offset="0"
         id="stop1" />
      <stop
         stop-color="#0000ff"
         offset="1"
         id="stop2" />
    </radialGradient>
  </defs>
  <path
     d="m 15.351453,8.9713604 c -1.404021,0 -2.682649,0.794988 -3.310549,2.0507816 -1.24857,2.791437 -1.703565,8.851524 -3.8906249,11.039061 -1.521699,1.522032 -1.634766,2.757924 -1.634766,4.910157 v 4.910157 c 0,1.636356 1.099485,2.817663 2.455077,3.269532 v 5.320311 h 6.5449239 v -4.5 h 18 v 4.5 h 6.544923 v -5.320311 c 1.355592,-0.451869 2.455077,-1.633176 2.455077,-3.269532 V 26.97136 c 0,-2.152233 -0.113064,-3.388125 -1.634766,-4.910157 -2.187063,-2.187537 -2.642052,-8.247624 -3.890625,-11.039061 -0.6279,-1.2557936 -1.90653,-2.0507816 -3.310548,-2.0507816 z m 0.164061,4.4999996 h 18 l 2.15625,7.5 H 13.359263 Z m -3.000001,12.380859 a 2.6181818,2.6181818 0 0 1 2.619142,2.619141 2.6181818,2.6181818 0 0 1 -2.619142,2.619141 2.6181818,2.6181818 0 0 1 -2.6191409,-2.619141 2.6181818,2.6181818 0 0 1 2.6191409,-2.619141 z m 24.000001,0 a 2.6181818,2.6181818 0 0 1 2.619141,2.619141 2.6181818,2.6181818 0 0 1 -2.619141,2.619141 2.6181818,2.6181818 0 0 1 -2.619141,-2.619141 2.6181818,2.6181818 0 0 1 2.619141,-2.619141 z"
     fill="#ffffff"
     stroke-linecap="round"
     stroke-width="1.3"
     id="path3"
     style="fill:#008000" />
</svg>
