<?xml version="1.0" encoding="UTF-8" standalone="no"?>
<svg
   width="48"
   height="48"
   version="1.1"
   viewBox="0 0 48 48"
   id="svg2"
   sodipodi:docname="train_48.svg"
   inkscape:version="1.4.2 (f4327f4, 2025-05-13)"
   inkscape:export-filename="train_64.png"
   inkscape:export-xdpi="128"
   inkscape:export-ydpi="128"
   xmlns:inkscape="http://www.inkscape.org/namespaces/inkscape"
   xmlns:sodipodi="http://sodipodi.sourceforge.net/DTD/sodipodi-0.dtd"
   xmlns="http://www.w3.org/2000/svg"
   xmlns:svg="http://www.w3.org/2000/svg">
  <sodipodi:namedview
     id="namedview2"
     pagecolor="#ffffff"
     bordercolor="#000000"
     borderopacity="0.25"
     inkscape:showpageshadow="2"
     inkscape:pageopacity="0.0"
     inkscape:pagecheckerboard="0"
     inkscape:deskcolor="#d1d1d1"
     showgrid="true"
     inkscape:current-layer="svg2"
     inkscape:zoom="8.7291667"
     inkscape:cx="48"
     inkscape:cy="48"
     inkscape:window-width="2560"
     inkscape:window-height="1009"
     inkscape:window-x="-8"
     inkscape:window-y="-8"
     inkscape:window-maximized="1">
    <inkscape:grid
       id="grid2"
       units="px"
       originx="0"
       originy="0"
       spacingx="0.5"
       spacingy="0.5"
       empcolor="#0099e5"
       empopacity="0.30196078"
       color="#0099e5"
       opacity="0.14901961"
       empspacing="2"
       dotted="false"
       gridanglex="30"
       gridanglez="30"
       visible="true" />
  </sodipodi:namedview>
  <defs
     id="defs2">
    <radialGradient
       id="a"
       cx="11.597042"
       cy="12.114004"
       r="12"
       gradientTransform="matrix(2.9969231,2.9969232,-2.6940731,2.694073,33.880572,-40.391457)"
       gradientUnits="userSpaceOnUse">
      <stop
         stop-color="#7070ff"
         offset="0"
         id="stop1" />
      <stop
         stop-color="#0000ff"
         offset="1"
         id="stop2" />
    </radialGradient>
  </defs>
  <g
     id="g1"
     transform="matrix(0.83702693,0,0,0.83702693,-15.808326,-9.5178994)">
    <path
       d="M 38.455077,23 33.600196,33.910157 33,48.910154 C 33.000588,51.168662 34.831335,52.999412 37.089843,53 H 58.910157 C 61.168665,52.999412 62.999412,51.168665 63,48.910154 L 62.400195,33.910157 57.54492,23 Z m 2.144532,3 h 15 l 3.900195,9 H 36.699805 Z M 40.5,41 c 1.656855,0 3,1.343145 3,3 0,1.656852 -1.343148,2.999997 -3,2.999997 -1.656852,0 -3,-1.343145 -3,-2.999997 0,-1.656855 1.343145,-3 3,-3 z m 15,0 c 1.656855,0 3,1.343145 3,3 0,1.656852 -1.343148,2.999997 -3,2.999997 -1.656852,0 -3,-1.343145 -3,-2.999997 0,-1.656855 1.343145,-3 3,-3 z"
       style="fill:#008000;stroke:#008000;stroke-width:2.72727;stroke-linecap:round;stroke-linejoin:round"
       id="path12"
       sodipodi:nodetypes="ccccccccccccccssssssssss" />
    <path
       style="fill:#008000;stroke:#008000;stroke-width:3;stroke-linecap:round;stroke-linejoin:round"
       d="m 40.5,15.5 h 15"
       id="path13"
       sodipodi:nodetypes="cc" />
    <path
       style="fill:#008000;stroke:#008000;stroke-width:3;stroke-linecap:round;stroke-linejoin:round"
       d="m 43.5,15.5 1.5,9"
       id="path14"
       sodipodi:nodetypes="cc" />
    <path
       style="fill:#008000;stroke:#008000;stroke-width:3;stroke-linecap:round;stroke-linejoin:round"
       d="m 52.5,15.5 -1.5,9"
       id="path15"
       sodipodi:nodetypes="cc" />
    <path
       style="fill:#008080;stroke:#008000;stroke-width:3;stroke-linecap:round;stroke-linejoin:round;stroke-dasharray:none"
       d="M 39,51.5 36,65"
       id="path16"
       sodipodi:nodetypes="cc" />
    <path
       style="fill:#008000;stroke:#008000;stroke-width:3;stroke-linecap:round;stroke-linejoin:round;stroke-dasharray:none"
       d="M 57,51.5 60,65"
       id="path17"
       sodipodi:nodetypes="cc" />
    <path
       style="fill:#008000;stroke:#008000;stroke-width:3;stroke-linecap:round;stroke-linejoin:round;stroke-dasharray:none"
       d="m 37.5,63.5 h 21"
       id="path18"
       sodipodi:nodetypes="cc" />
    <path
       style="fill:#008000;stroke:#008000;stroke-width:3;stroke-linecap:round;stroke-linejoin:round;stroke-dasharray:none"
       d="M 39,57.5 H 57"
       id="path19"
       sodipodi:nodetypes="cc" />
  </g>
</svg>
